<?xml version="1.0" encoding="utf-8"?>
<!-- Generator: Adobe Illustrator 19.2.1, SVG Export Plug-In . SVG Version: 6.00 Build 0)  -->
<!DOCTYPE svg PUBLIC "-//W3C//DTD SVG 1.1//EN" "http://www.w3.org/Graphics/SVG/1.1/DTD/svg11.dtd">
<svg version="1.1" id="Layer_1" xmlns="http://www.w3.org/2000/svg" xmlns:xlink="http://www.w3.org/1999/xlink" x="0px" y="0px"
	 viewBox="0 0 104 104" style="enable-background:new 0 0 104 104;" xml:space="preserve">
<style type="text/css">
	.st0{fill:#FFFFFF;}
	.st1{fill:#E0E3E5;}
	.st2{fill:#4FC9FF;}
</style>
<g>
	<path class="st0" d="M52,103C23.9,103,1,80.1,1,52C1,23.9,23.9,1,52,1c28.1,0,51,22.9,51,51C103,80.1,80.1,103,52,103z"/>
	<path class="st1" d="M52,2c27.6,0,50,22.4,50,50s-22.4,50-50,50S2,79.6,2,52S24.4,2,52,2 M52,0C23.3,0,0,23.3,0,52s23.3,52,52,52
		s52-23.3,52-52S80.7,0,52,0L52,0z"/>
</g>
<g id="upload">
	<g>
		<path class="st2" d="M82,58c0,6.5-5.2,11.9-11.8,11.9c-0.2,0-0.5,0-0.7,0H55.3V58.1c0.8,0,1.5,0,2.2,0H63c1.1,0,1.5-0.8,0.8-1.6
			L53.3,44c-0.8-0.9-2-0.9-2.8,0L40,56.4c-0.8,0.9-0.5,1.6,0.8,1.6h5.5c0.6,0,1.3,0,2.2,0v11.7H34.2c-0.1,0-0.1,0-0.1,0H34h-0.2
			v-0.1c-6.5-0.1-11.8-5.5-11.8-12c0-4.5,2.4-8.2,5.9-10.4c-0.2-0.8-0.4-1.6-0.4-2.5c0-4.6,3.7-8.2,8.2-8.2c1.9,0,3.6,0.7,5,1.7
			c2.8-6.1,9-10.2,16.1-10.2c9.9,0,17.9,8,17.9,17.8c0,0.4,0,0.8-0.1,1.1C79.1,48.8,82,53,82,58z"/>
	</g>
</g>
</svg>
